 0 
SECTION
 2 
HEADER
 9 
$ACADVER
 1 
AC1004
 9 
$EXTMIN
 10 
0,0
 20 
0,0
 9 
$EXTMAX
 10 
96,52
 20 
63,5
 9 
$LIMMIN
 10 
0,0
 20 
0,0
 9 
$LIMMAX
 10 
96,52
 20 
63,5
 9 
$INSBASE
 10 
0,0
 20 
0,0
 9 
$VIEWCTR
 10 
48,26
 20 
31,75
 9 
$VIEWSIZE
 40 
63,5
 9 
$ORTHOMODE
 70 
 0 
 9 
$REGENMODE
 70 
 1 
 9 
$FILLMODE
 70 
 1 
 9 
$QTEXTMODE
 70 
 0 
 9 
$DRAGMODE
 70 
 2 
 9 
$LTSCALE
 40 
1,0
 9 
$OSMODE
 70 
 0 
 9 
$ATTMODE
 70 
 1 
 9 
$TEXTSIZE
 40 
0,2
 9 
$TRACEWID
 40 
0,05
 9 
$TEXTSTYLE
 7 
STANDARD
 9 
$CLAYER
 8 
0
 9 
$CELTYPE
 6 
BYLAYER
 9 
$CECOLOR
 62 
 256 
 9 
$DIMSCALE
 40 
1,0
 9 
$DIMLFAC
 40 
1,0
 9 
$LUNITS
 70 
 2 
 9 
$LUPREC
 70 
 4 
 9 
$AXISMODE
 70 
 0 
 9 
$AXISUNIT
 10 
0,0
 20 
0,0
 9 
$SKETCHINC
 40 
0,1
 9 
$MENU
 1 
acad
 9 
$ELEVATION
 40 
0,0
 9 
$THICKNESS
 40 
0,0
 9 
$VIEWDIR
 10 
0,0
 20 
0,0
 30 
1,0
 9 
$LIMCHECK
 70 
 0 
 9 
$BLIPMODE
 70 
 1 
 9 
$FASTZOOM
 70 
 1 
 9 
$SKPOLY
 70 
 0 
 9 
$ANGBASE
 50 
0,0
 9 
$ANGDIR
 70 
 0 
 9 
$PDMODE
 70 
 0 
 9 
$PDSIZE
 40 
0,0
 9 
$PLINEWID
 40 
0,0
 9 
$COORDS
 70 
 0 
 9 
$ATTDIA
 70 
 0 
 9 
$ATTREQ
 70 
 1 
 0 
ENDSEC
 0 
SECTION
 2 
TABLES
 0 
TABLE
 2 
LTYPE
 70 
 10 
 0 
LTYPE
 2 
CONTINUOUS
 70 
 64 
 3 
Solid line
 72 
 65 
 73 
 0 
 40 
0,0
 0 
ENDTAB
 0 
TABLE
 2 
LAYER
 70 
 153 
 0 
LAYER
 2 
0
 70 
 64 
 62 
 7 
 6 
CONTINUOUS
 0 
ENDTAB
 0 
ENDSEC
 0 
SECTION
 2 
BLOCKS
 0 
ENDSEC
 0 
SECTION
 2 
ENTITIES
 0 
LINE
 8 
0
 62 
 7 
 10 
0,0
 20 
63,5
 11 
96,52
 21 
63,5
 0 
LINE
 8 
0
 62 
 7 
 10 
96,52
 20 
63,5
 11 
96,52
 21 
0,0
 0 
LINE
 8 
0
 62 
 7 
 10 
96,52
 20 
0,0
 11 
0,0
 21 
0,0
 0 
LINE
 8 
0
 62 
 7 
 10 
0,0
 20 
0,0
 11 
0,0
 21 
63,5
 0 
LINE
 8 
0
 62 
 7 
 10 
53,797
 20 
42,824
 11 
55,448
 21 
42,824
 0 
LINE
 8 
0
 62 
 7 
 10 
55,448
 20 
42,824
 11 
55,448
 21 
41,173
 0 
LINE
 8 
0
 62 
 7 
 10 
55,448
 20 
41,173
 11 
53,797
 21 
41,173
 0 
LINE
 8 
0
 62 
 7 
 10 
53,797
 20 
41,173
 11 
53,797
 21 
42,824
 0 
CIRCLE
 8 
0
 62 
 7 
 10 
54,61
 20 
39,218
 40 
0,813
 0 
CIRCLE
 8 
0
 62 
 7 
 10 
54,61
 20 
36,449
 40 
0,813
 0 
CIRCLE
 8 
0
 62 
 7 
 10 
54,61
 20 
33,68
 40 
0,813
 0 
CIRCLE
 8 
0
 62 
 7 
 10 
54,61
 20 
30,912
 40 
0,813
 0 
CIRCLE
 8 
0
 62 
 7 
 10 
54,61
 20 
28,143
 40 
0,813
 0 
CIRCLE
 8 
0
 62 
 7 
 10 
54,61
 20 
25,375
 40 
0,813
 0 
CIRCLE
 8 
0
 62 
 7 
 10 
54,61
 20 
22,606
 40 
0,813
 0 
CIRCLE
 8 
0
 62 
 7 
 10 
51,765
 20 
40,615
 40 
0,813
 0 
CIRCLE
 8 
0
 62 
 7 
 10 
51,765
 20 
37,821
 40 
0,813
 0 
CIRCLE
 8 
0
 62 
 7 
 10 
51,765
 20 
35,077
 40 
0,813
 0 
CIRCLE
 8 
0
 62 
 7 
 10 
51,765
 20 
32,283
 40 
0,813
 0 
CIRCLE
 8 
0
 62 
 7 
 10 
51,765
 20 
29,54
 40 
0,813
 0 
CIRCLE
 8 
0
 62 
 7 
 10 
51,765
 20 
26,746
 40 
0,813
 0 
CIRCLE
 8 
0
 62 
 7 
 10 
51,765
 20 
24,003
 40 
0,813
 0 
CIRCLE
 8 
0
 62 
 7 
 10 
53,188
 20 
48,946
 40 
2,286
 0 
CIRCLE
 8 
0
 62 
 7 
 10 
53,188
 20 
15,646
 40 
2,286
 0 
CIRCLE
 8 
0
 62 
 7 
 10 
62,23
 20 
45,72
 40 
0,711
 0 
CIRCLE
 8 
0
 62 
 7 
 10 
68,58
 20 
45,72
 40 
0,711
 0 
CIRCLE
 8 
0
 62 
 7 
 10 
62,255
 20 
43,002
 40 
0,711
 0 
CIRCLE
 8 
0
 62 
 7 
 10 
68,605
 20 
43,002
 40 
0,711
 0 
CIRCLE
 8 
0
 62 
 7 
 10 
62,23
 20 
40,64
 40 
0,711
 0 
CIRCLE
 8 
0
 62 
 7 
 10 
68,58
 20 
40,64
 40 
0,711
 0 
CIRCLE
 8 
0
 62 
 7 
 10 
62,255
 20 
37,922
 40 
0,711
 0 
CIRCLE
 8 
0
 62 
 7 
 10 
68,605
 20 
37,922
 40 
0,711
 0 
CIRCLE
 8 
0
 62 
 7 
 10 
62,23
 20 
35,56
 40 
0,711
 0 
CIRCLE
 8 
0
 62 
 7 
 10 
68,58
 20 
35,56
 40 
0,711
 0 
CIRCLE
 8 
0
 62 
 7 
 10 
62,255
 20 
32,842
 40 
0,711
 0 
CIRCLE
 8 
0
 62 
 7 
 10 
68,605
 20 
32,842
 40 
0,711
 0 
CIRCLE
 8 
0
 62 
 7 
 10 
62,23
 20 
30,48
 40 
0,711
 0 
CIRCLE
 8 
0
 62 
 7 
 10 
68,58
 20 
30,48
 40 
0,711
 0 
CIRCLE
 8 
0
 62 
 7 
 10 
62,255
 20 
27,762
 40 
0,711
 0 
CIRCLE
 8 
0
 62 
 7 
 10 
68,605
 20 
27,762
 40 
0,711
 0 
CIRCLE
 8 
0
 62 
 7 
 10 
62,23
 20 
25,4
 40 
0,711
 0 
CIRCLE
 8 
0
 62 
 7 
 10 
68,58
 20 
25,4
 40 
0,711
 0 
CIRCLE
 8 
0
 62 
 7 
 10 
62,255
 20 
22,682
 40 
0,711
 0 
CIRCLE
 8 
0
 62 
 7 
 10 
68,605
 20 
22,682
 40 
0,711
 0 
CIRCLE
 8 
0
 62 
 7 
 10 
62,23
 20 
20,32
 40 
0,711
 0 
CIRCLE
 8 
0
 62 
 7 
 10 
68,58
 20 
20,32
 40 
0,711
 0 
CIRCLE
 8 
0
 62 
 7 
 10 
62,255
 20 
17,602
 40 
0,711
 0 
CIRCLE
 8 
0
 62 
 7 
 10 
68,605
 20 
17,602
 40 
0,711
 0 
ENDSEC
 0 
EOF
