 0 
SECTION
 2 
HEADER
 9 
$ACADVER
 1 
AC1004
 9 
$EXTMIN
 10 
0,0
 20 
0,0
 9 
$EXTMAX
 10 
96,52
 20 
63,5
 9 
$LIMMIN
 10 
0,0
 20 
0,0
 9 
$LIMMAX
 10 
96,52
 20 
63,5
 9 
$INSBASE
 10 
0,0
 20 
0,0
 9 
$VIEWCTR
 10 
48,26
 20 
31,75
 9 
$VIEWSIZE
 40 
63,5
 9 
$ORTHOMODE
 70 
 0 
 9 
$REGENMODE
 70 
 1 
 9 
$FILLMODE
 70 
 1 
 9 
$QTEXTMODE
 70 
 0 
 9 
$DRAGMODE
 70 
 2 
 9 
$LTSCALE
 40 
1,0
 9 
$OSMODE
 70 
 0 
 9 
$ATTMODE
 70 
 1 
 9 
$TEXTSIZE
 40 
0,2
 9 
$TRACEWID
 40 
0,05
 9 
$TEXTSTYLE
 7 
STANDARD
 9 
$CLAYER
 8 
0
 9 
$CELTYPE
 6 
BYLAYER
 9 
$CECOLOR
 62 
 256 
 9 
$DIMSCALE
 40 
1,0
 9 
$DIMLFAC
 40 
1,0
 9 
$LUNITS
 70 
 2 
 9 
$LUPREC
 70 
 4 
 9 
$AXISMODE
 70 
 0 
 9 
$AXISUNIT
 10 
0,0
 20 
0,0
 9 
$SKETCHINC
 40 
0,1
 9 
$MENU
 1 
acad
 9 
$ELEVATION
 40 
0,0
 9 
$THICKNESS
 40 
0,0
 9 
$VIEWDIR
 10 
0,0
 20 
0,0
 30 
1,0
 9 
$LIMCHECK
 70 
 0 
 9 
$BLIPMODE
 70 
 1 
 9 
$FASTZOOM
 70 
 1 
 9 
$SKPOLY
 70 
 0 
 9 
$ANGBASE
 50 
0,0
 9 
$ANGDIR
 70 
 0 
 9 
$PDMODE
 70 
 0 
 9 
$PDSIZE
 40 
0,0
 9 
$PLINEWID
 40 
0,0
 9 
$COORDS
 70 
 0 
 9 
$ATTDIA
 70 
 0 
 9 
$ATTREQ
 70 
 1 
 0 
ENDSEC
 0 
SECTION
 2 
TABLES
 0 
TABLE
 2 
LTYPE
 70 
 10 
 0 
LTYPE
 2 
CONTINUOUS
 70 
 64 
 3 
Solid line
 72 
 65 
 73 
 0 
 40 
0,0
 0 
ENDTAB
 0 
TABLE
 2 
LAYER
 70 
 153 
 0 
LAYER
 2 
0
 70 
 64 
 62 
 7 
 6 
CONTINUOUS
 0 
ENDTAB
 0 
ENDSEC
 0 
SECTION
 2 
BLOCKS
 0 
ENDSEC
 0 
SECTION
 2 
ENTITIES
 0 
LINE
 8 
0
 62 
 7 
 10 
0,0
 20 
63,5
 11 
96,52
 21 
63,5
 0 
LINE
 8 
0
 62 
 7 
 10 
96,52
 20 
63,5
 11 
96,52
 21 
0,0
 0 
LINE
 8 
0
 62 
 7 
 10 
96,52
 20 
0,0
 11 
0,0
 21 
0,0
 0 
LINE
 8 
0
 62 
 7 
 10 
0,0
 20 
0,0
 11 
0,0
 21 
63,5
 0 
LINE
 8 
0
 62 
 7 
 10 
56,261
 20 
12,624
 11 
43,815
 21 
12,624
 0 
LINE
 8 
0
 62 
 7 
 10 
43,815
 20 
51,943
 11 
43,815
 21 
12,624
 0 
LINE
 8 
0
 62 
 7 
 10 
43,815
 20 
51,943
 11 
56,261
 21 
51,943
 0 
LINE
 8 
0
 62 
 7 
 10 
56,261
 20 
12,624
 11 
56,261
 21 
51,943
 0 
LINE
 8 
0
 62 
 7 
 10 
43,815
 20 
20,041
 11 
37,719
 21 
20,041
 0 
LINE
 8 
0
 62 
 7 
 10 
37,719
 20 
44,526
 11 
37,719
 21 
20,041
 0 
LINE
 8 
0
 62 
 7 
 10 
37,719
 20 
44,526
 11 
43,815
 21 
44,526
 0 
LINE
 8 
0
 62 
 7 
 10 
43,815
 20 
20,041
 11 
43,815
 21 
44,526
 0 
LINE
 8 
0
 62 
 7 
 10 
78,638
 20 
42,367
 11 
77,953
 21 
42,367
 0 
LINE
 8 
0
 62 
 7 
 10 
77,953
 20 
42,367
 11 
77,953
 21 
41,351
 0 
LINE
 8 
0
 62 
 7 
 10 
77,953
 20 
41,351
 11 
78,638
 21 
41,351
 0 
LINE
 8 
0
 62 
 7 
 10 
77,953
 20 
41,859
 11 
78,461
 21 
41,859
 0 
LINE
 8 
0
 62 
 7 
 10 
72,187
 20 
41,326
 11 
72,187
 21 
42,012
 0 
LINE
 8 
0
 62 
 7 
 10 
72,187
 20 
42,012
 11 
72,517
 21 
42,342
 0 
LINE
 8 
0
 62 
 7 
 10 
72,517
 20 
42,342
 11 
72,873
 21 
42,012
 0 
LINE
 8 
0
 62 
 7 
 10 
72,873
 20 
42,012
 11 
72,873
 21 
41,326
 0 
LINE
 8 
0
 62 
 7 
 10 
72,187
 20 
41,656
 11 
72,873
 21 
41,656
 0 
LINE
 8 
0
 62 
 7 
 10 
72,187
 20 
40,437
 11 
72,187
 21 
39,421
 0 
LINE
 8 
0
 62 
 7 
 10 
72,873
 20 
40,437
 11 
72,365
 21 
39,929
 0 
LINE
 8 
0
 62 
 7 
 10 
72,187
 20 
39,929
 11 
72,365
 21 
39,929
 0 
LINE
 8 
0
 62 
 7 
 10 
72,365
 20 
39,929
 11 
72,873
 21 
39,421
 0 
LINE
 8 
0
 62 
 7 
 10 
78,562
 20 
40,259
 11 
78,384
 21 
40,437
 0 
LINE
 8 
0
 62 
 7 
 10 
78,384
 20 
40,437
 11 
78,054
 21 
40,437
 0 
LINE
 8 
0
 62 
 7 
 10 
78,054
 20 
40,437
 11 
77,876
 21 
40,259
 0 
LINE
 8 
0
 62 
 7 
 10 
77,876
 20 
40,259
 11 
77,876
 21 
39,599
 0 
LINE
 8 
0
 62 
 7 
 10 
77,876
 20 
39,599
 11 
78,054
 21 
39,421
 0 
LINE
 8 
0
 62 
 7 
 10 
78,054
 20 
39,421
 11 
78,384
 21 
39,421
 0 
LINE
 8 
0
 62 
 7 
 10 
78,384
 20 
39,421
 11 
78,562
 21 
39,599
 0 
LINE
 8 
0
 62 
 7 
 10 
64,008
 20 
44,958
 11 
64,008
 21 
46,482
 0 
LINE
 8 
0
 62 
 7 
 10 
66,802
 20 
46,482
 11 
64,008
 21 
46,482
 0 
LINE
 8 
0
 62 
 7 
 10 
66,802
 20 
46,482
 11 
66,802
 21 
44,958
 0 
LINE
 8 
0
 62 
 7 
 10 
64,008
 20 
44,958
 11 
66,802
 21 
44,958
 0 
LINE
 8 
0
 62 
 7 
 10 
64,008
 20 
45,72
 11 
63,373
 21 
45,72
 0 
LINE
 8 
0
 62 
 7 
 10 
66,802
 20 
45,72
 11 
67,437
 21 
45,72
 0 
LINE
 8 
0
 62 
 7 
 10 
64,008
 20 
42,418
 11 
64,008
 21 
43,942
 0 
LINE
 8 
0
 62 
 7 
 10 
66,802
 20 
43,942
 11 
64,008
 21 
43,942
 0 
LINE
 8 
0
 62 
 7 
 10 
66,802
 20 
43,942
 11 
66,802
 21 
42,418
 0 
LINE
 8 
0
 62 
 7 
 10 
64,008
 20 
42,418
 11 
66,802
 21 
42,418
 0 
LINE
 8 
0
 62 
 7 
 10 
64,008
 20 
43,18
 11 
63,373
 21 
43,18
 0 
LINE
 8 
0
 62 
 7 
 10 
66,802
 20 
43,18
 11 
67,437
 21 
43,18
 0 
LINE
 8 
0
 62 
 7 
 10 
64,008
 20 
39,878
 11 
64,008
 21 
41,402
 0 
LINE
 8 
0
 62 
 7 
 10 
66,802
 20 
41,402
 11 
64,008
 21 
41,402
 0 
LINE
 8 
0
 62 
 7 
 10 
66,802
 20 
41,402
 11 
66,802
 21 
39,878
 0 
LINE
 8 
0
 62 
 7 
 10 
64,008
 20 
39,878
 11 
66,802
 21 
39,878
 0 
LINE
 8 
0
 62 
 7 
 10 
64,008
 20 
40,64
 11 
63,373
 21 
40,64
 0 
LINE
 8 
0
 62 
 7 
 10 
66,802
 20 
40,64
 11 
67,437
 21 
40,64
 0 
LINE
 8 
0
 62 
 7 
 10 
64,033
 20 
37,16
 11 
64,033
 21 
38,684
 0 
LINE
 8 
0
 62 
 7 
 10 
66,827
 20 
38,684
 11 
64,033
 21 
38,684
 0 
LINE
 8 
0
 62 
 7 
 10 
66,827
 20 
38,684
 11 
66,827
 21 
37,16
 0 
LINE
 8 
0
 62 
 7 
 10 
64,033
 20 
37,16
 11 
66,827
 21 
37,16
 0 
LINE
 8 
0
 62 
 7 
 10 
64,033
 20 
37,922
 11 
63,398
 21 
37,922
 0 
LINE
 8 
0
 62 
 7 
 10 
66,827
 20 
37,922
 11 
67,462
 21 
37,922
 0 
LINE
 8 
0
 62 
 7 
 10 
64,008
 20 
34,798
 11 
64,008
 21 
36,322
 0 
LINE
 8 
0
 62 
 7 
 10 
66,802
 20 
36,322
 11 
64,008
 21 
36,322
 0 
LINE
 8 
0
 62 
 7 
 10 
66,802
 20 
36,322
 11 
66,802
 21 
34,798
 0 
LINE
 8 
0
 62 
 7 
 10 
64,008
 20 
34,798
 11 
66,802
 21 
34,798
 0 
LINE
 8 
0
 62 
 7 
 10 
64,008
 20 
35,56
 11 
63,373
 21 
35,56
 0 
LINE
 8 
0
 62 
 7 
 10 
66,802
 20 
35,56
 11 
67,437
 21 
35,56
 0 
LINE
 8 
0
 62 
 7 
 10 
64,033
 20 
32,08
 11 
64,033
 21 
33,604
 0 
LINE
 8 
0
 62 
 7 
 10 
66,827
 20 
33,604
 11 
64,033
 21 
33,604
 0 
LINE
 8 
0
 62 
 7 
 10 
66,827
 20 
33,604
 11 
66,827
 21 
32,08
 0 
LINE
 8 
0
 62 
 7 
 10 
64,033
 20 
32,08
 11 
66,827
 21 
32,08
 0 
LINE
 8 
0
 62 
 7 
 10 
64,033
 20 
32,842
 11 
63,398
 21 
32,842
 0 
LINE
 8 
0
 62 
 7 
 10 
66,827
 20 
32,842
 11 
67,462
 21 
32,842
 0 
LINE
 8 
0
 62 
 7 
 10 
64,008
 20 
29,718
 11 
64,008
 21 
31,242
 0 
LINE
 8 
0
 62 
 7 
 10 
66,802
 20 
31,242
 11 
64,008
 21 
31,242
 0 
LINE
 8 
0
 62 
 7 
 10 
66,802
 20 
31,242
 11 
66,802
 21 
29,718
 0 
LINE
 8 
0
 62 
 7 
 10 
64,008
 20 
29,718
 11 
66,802
 21 
29,718
 0 
LINE
 8 
0
 62 
 7 
 10 
64,008
 20 
30,48
 11 
63,373
 21 
30,48
 0 
LINE
 8 
0
 62 
 7 
 10 
66,802
 20 
30,48
 11 
67,437
 21 
30,48
 0 
LINE
 8 
0
 62 
 7 
 10 
64,033
 20 
27,0
 11 
64,033
 21 
28,524
 0 
LINE
 8 
0
 62 
 7 
 10 
66,827
 20 
28,524
 11 
64,033
 21 
28,524
 0 
LINE
 8 
0
 62 
 7 
 10 
66,827
 20 
28,524
 11 
66,827
 21 
27,0
 0 
LINE
 8 
0
 62 
 7 
 10 
64,033
 20 
27,0
 11 
66,827
 21 
27,0
 0 
LINE
 8 
0
 62 
 7 
 10 
64,033
 20 
27,762
 11 
63,398
 21 
27,762
 0 
LINE
 8 
0
 62 
 7 
 10 
66,827
 20 
27,762
 11 
67,462
 21 
27,762
 0 
LINE
 8 
0
 62 
 7 
 10 
64,008
 20 
24,638
 11 
64,008
 21 
26,162
 0 
LINE
 8 
0
 62 
 7 
 10 
66,802
 20 
26,162
 11 
64,008
 21 
26,162
 0 
LINE
 8 
0
 62 
 7 
 10 
66,802
 20 
26,162
 11 
66,802
 21 
24,638
 0 
LINE
 8 
0
 62 
 7 
 10 
64,008
 20 
24,638
 11 
66,802
 21 
24,638
 0 
LINE
 8 
0
 62 
 7 
 10 
64,008
 20 
25,4
 11 
63,373
 21 
25,4
 0 
LINE
 8 
0
 62 
 7 
 10 
66,802
 20 
25,4
 11 
67,437
 21 
25,4
 0 
LINE
 8 
0
 62 
 7 
 10 
64,033
 20 
21,92
 11 
64,033
 21 
23,444
 0 
LINE
 8 
0
 62 
 7 
 10 
66,827
 20 
23,444
 11 
64,033
 21 
23,444
 0 
LINE
 8 
0
 62 
 7 
 10 
66,827
 20 
23,444
 11 
66,827
 21 
21,92
 0 
LINE
 8 
0
 62 
 7 
 10 
64,033
 20 
21,92
 11 
66,827
 21 
21,92
 0 
LINE
 8 
0
 62 
 7 
 10 
64,033
 20 
22,682
 11 
63,398
 21 
22,682
 0 
LINE
 8 
0
 62 
 7 
 10 
66,827
 20 
22,682
 11 
67,462
 21 
22,682
 0 
LINE
 8 
0
 62 
 7 
 10 
64,008
 20 
19,558
 11 
64,008
 21 
21,082
 0 
LINE
 8 
0
 62 
 7 
 10 
66,802
 20 
21,082
 11 
64,008
 21 
21,082
 0 
LINE
 8 
0
 62 
 7 
 10 
66,802
 20 
21,082
 11 
66,802
 21 
19,558
 0 
LINE
 8 
0
 62 
 7 
 10 
64,008
 20 
19,558
 11 
66,802
 21 
19,558
 0 
LINE
 8 
0
 62 
 7 
 10 
64,008
 20 
20,32
 11 
63,373
 21 
20,32
 0 
LINE
 8 
0
 62 
 7 
 10 
66,802
 20 
20,32
 11 
67,437
 21 
20,32
 0 
LINE
 8 
0
 62 
 7 
 10 
64,033
 20 
16,84
 11 
64,033
 21 
18,364
 0 
LINE
 8 
0
 62 
 7 
 10 
66,827
 20 
18,364
 11 
64,033
 21 
18,364
 0 
LINE
 8 
0
 62 
 7 
 10 
66,827
 20 
18,364
 11 
66,827
 21 
16,84
 0 
LINE
 8 
0
 62 
 7 
 10 
64,033
 20 
16,84
 11 
66,827
 21 
16,84
 0 
LINE
 8 
0
 62 
 7 
 10 
64,033
 20 
17,602
 11 
63,398
 21 
17,602
 0 
LINE
 8 
0
 62 
 7 
 10 
66,827
 20 
17,602
 11 
67,462
 21 
17,602
 0 
ENDSEC
 0 
EOF
